<mxfile host="Electron" modified="2025-09-10T23:07:54.801Z" agent="Mozilla/5.0 (Windows NT 10.0; Win64; x64) AppleWebKit/537.36 (KHTML, like Gecko) draw.io/22.1.2 Chrome/114.0.5735.289 Electron/25.9.4 Safari/537.36" version="22.1.2" etag="3NZD7gBjNHzidg1IIfD3" type="device">
  <diagram id="4ZSPBzJSORsSi4Hex_y3" name="Page-1">
    <mxGraphModel dx="1194" dy="717" grid="1" gridSize="10" guides="1" tooltips="1" connect="1" arrows="1" fold="1" page="1" pageScale="1" pageWidth="1100" pageHeight="850" math="0" shadow="0">
      <root>
        <mxCell id="0" />
        <mxCell id="1" parent="0" />
        <mxCell id="dMWroVS-dqK6oUPwQE1e-128" value="&lt;font style=&quot;font-size: 14px;&quot;&gt;downstream socket&lt;/font&gt;" style="rounded=0;whiteSpace=wrap;html=1;" vertex="1" parent="1">
          <mxGeometry x="244" y="770" width="340" height="30" as="geometry" />
        </mxCell>
        <mxCell id="dMWroVS-dqK6oUPwQE1e-129" value="" style="shape=note;whiteSpace=wrap;html=1;backgroundOutline=1;darkOpacity=0.05;size=9;" vertex="1" parent="1">
          <mxGeometry x="255" y="617" width="30" height="42.5" as="geometry" />
        </mxCell>
        <mxCell id="dMWroVS-dqK6oUPwQE1e-130" value="" style="shape=note;whiteSpace=wrap;html=1;backgroundOutline=1;darkOpacity=0.05;size=9;" vertex="1" parent="1">
          <mxGeometry x="265" y="627" width="30" height="42.5" as="geometry" />
        </mxCell>
        <mxCell id="dMWroVS-dqK6oUPwQE1e-131" value="" style="shape=note;whiteSpace=wrap;html=1;backgroundOutline=1;darkOpacity=0.05;size=9;" vertex="1" parent="1">
          <mxGeometry x="275" y="637" width="30" height="42.5" as="geometry" />
        </mxCell>
        <mxCell id="dMWroVS-dqK6oUPwQE1e-132" value="&lt;font face=&quot;Verdana&quot; style=&quot;font-size: 14px;&quot;&gt;http header parser&lt;/font&gt;" style="rounded=0;whiteSpace=wrap;html=1;fillColor=#fff2cc;strokeColor=#d6b656;" vertex="1" parent="1">
          <mxGeometry x="234" y="499.37" width="92" height="51.25" as="geometry" />
        </mxCell>
        <mxCell id="dMWroVS-dqK6oUPwQE1e-133" value="" style="rounded=0;whiteSpace=wrap;html=1;fillColor=#dae8fc;strokeColor=#6c8ebf;" vertex="1" parent="1">
          <mxGeometry x="210" y="340" width="120" height="60" as="geometry" />
        </mxCell>
        <mxCell id="dMWroVS-dqK6oUPwQE1e-134" value="" style="rounded=0;whiteSpace=wrap;html=1;fillColor=#dae8fc;strokeColor=#6c8ebf;" vertex="1" parent="1">
          <mxGeometry x="220" y="350" width="120" height="60" as="geometry" />
        </mxCell>
        <mxCell id="dMWroVS-dqK6oUPwQE1e-135" value="&lt;font style=&quot;font-size: 14px;&quot; face=&quot;Verdana&quot;&gt;request filters&lt;/font&gt;" style="rounded=0;whiteSpace=wrap;html=1;fillColor=#dae8fc;strokeColor=#6c8ebf;fontSize=15;" vertex="1" parent="1">
          <mxGeometry x="230" y="360" width="120" height="60" as="geometry" />
        </mxCell>
        <mxCell id="dMWroVS-dqK6oUPwQE1e-136" value="&lt;font face=&quot;Verdana&quot; style=&quot;font-size: 14px;&quot;&gt;http header parser&lt;/font&gt;" style="rounded=0;whiteSpace=wrap;html=1;fillColor=#fff2cc;strokeColor=#d6b656;" vertex="1" parent="1">
          <mxGeometry x="482" y="348.75" width="92" height="51.25" as="geometry" />
        </mxCell>
        <mxCell id="dMWroVS-dqK6oUPwQE1e-137" value="&lt;font style=&quot;font-size: 14px;&quot;&gt;upstream socket&lt;/font&gt;" style="rounded=0;whiteSpace=wrap;html=1;" vertex="1" parent="1">
          <mxGeometry x="244" y="100" width="340" height="30" as="geometry" />
        </mxCell>
        <mxCell id="dMWroVS-dqK6oUPwQE1e-138" value="" style="rounded=0;whiteSpace=wrap;html=1;fillColor=#dae8fc;strokeColor=#6c8ebf;" vertex="1" parent="1">
          <mxGeometry x="469" y="470.62" width="120" height="60" as="geometry" />
        </mxCell>
        <mxCell id="dMWroVS-dqK6oUPwQE1e-139" value="" style="rounded=0;whiteSpace=wrap;html=1;fillColor=#dae8fc;strokeColor=#6c8ebf;" vertex="1" parent="1">
          <mxGeometry x="479" y="480.62" width="120" height="60" as="geometry" />
        </mxCell>
        <mxCell id="dMWroVS-dqK6oUPwQE1e-140" value="&lt;font style=&quot;font-size: 14px;&quot; face=&quot;Verdana&quot;&gt;response filters&lt;/font&gt;" style="rounded=0;whiteSpace=wrap;html=1;fillColor=#dae8fc;strokeColor=#6c8ebf;" vertex="1" parent="1">
          <mxGeometry x="489" y="490.62" width="120" height="60" as="geometry" />
        </mxCell>
        <mxCell id="dMWroVS-dqK6oUPwQE1e-141" value="&lt;font face=&quot;Verdana&quot;&gt;Bytes Stream&lt;/font&gt;" style="text;html=1;align=center;verticalAlign=middle;whiteSpace=wrap;rounded=0;" vertex="1" parent="1">
          <mxGeometry x="245" y="679.5" width="90" height="30" as="geometry" />
        </mxCell>
        <mxCell id="dMWroVS-dqK6oUPwQE1e-142" value="" style="shape=note;whiteSpace=wrap;html=1;backgroundOutline=1;darkOpacity=0.05;size=9;" vertex="1" parent="1">
          <mxGeometry x="504" y="617" width="30" height="42.5" as="geometry" />
        </mxCell>
        <mxCell id="dMWroVS-dqK6oUPwQE1e-143" value="" style="shape=note;whiteSpace=wrap;html=1;backgroundOutline=1;darkOpacity=0.05;size=9;" vertex="1" parent="1">
          <mxGeometry x="514" y="627" width="30" height="42.5" as="geometry" />
        </mxCell>
        <mxCell id="dMWroVS-dqK6oUPwQE1e-144" value="" style="shape=note;whiteSpace=wrap;html=1;backgroundOutline=1;darkOpacity=0.05;size=9;" vertex="1" parent="1">
          <mxGeometry x="524" y="637" width="30" height="42.5" as="geometry" />
        </mxCell>
        <mxCell id="dMWroVS-dqK6oUPwQE1e-145" value="&lt;font face=&quot;Verdana&quot;&gt;Bytes Stream&lt;/font&gt;" style="text;html=1;align=center;verticalAlign=middle;whiteSpace=wrap;rounded=0;" vertex="1" parent="1">
          <mxGeometry x="494" y="679.5" width="90" height="30" as="geometry" />
        </mxCell>
        <mxCell id="dMWroVS-dqK6oUPwQE1e-146" value="" style="endArrow=classic;html=1;rounded=0;" edge="1" parent="1">
          <mxGeometry width="50" height="50" relative="1" as="geometry">
            <mxPoint x="283" y="760" as="sourcePoint" />
            <mxPoint x="283" y="720" as="targetPoint" />
          </mxGeometry>
        </mxCell>
        <mxCell id="dMWroVS-dqK6oUPwQE1e-147" value="" style="endArrow=classic;html=1;rounded=0;" edge="1" parent="1">
          <mxGeometry width="50" height="50" relative="1" as="geometry">
            <mxPoint x="279.58000000000004" y="601" as="sourcePoint" />
            <mxPoint x="279.58000000000004" y="561" as="targetPoint" />
          </mxGeometry>
        </mxCell>
        <mxCell id="dMWroVS-dqK6oUPwQE1e-148" value="" style="endArrow=classic;html=1;rounded=0;" edge="1" parent="1">
          <mxGeometry width="50" height="50" relative="1" as="geometry">
            <mxPoint x="279.58000000000004" y="480.62" as="sourcePoint" />
            <mxPoint x="279.58000000000004" y="440.62" as="targetPoint" />
          </mxGeometry>
        </mxCell>
        <mxCell id="dMWroVS-dqK6oUPwQE1e-149" value="" style="endArrow=classic;html=1;rounded=0;" edge="1" parent="1">
          <mxGeometry width="50" height="50" relative="1" as="geometry">
            <mxPoint x="279.58000000000004" y="186" as="sourcePoint" />
            <mxPoint x="279.58000000000004" y="146" as="targetPoint" />
          </mxGeometry>
        </mxCell>
        <mxCell id="dMWroVS-dqK6oUPwQE1e-150" value="" style="endArrow=classic;html=1;rounded=0;" edge="1" parent="1">
          <mxGeometry width="50" height="50" relative="1" as="geometry">
            <mxPoint x="528.5" y="151" as="sourcePoint" />
            <mxPoint x="528.5" y="191" as="targetPoint" />
          </mxGeometry>
        </mxCell>
        <mxCell id="dMWroVS-dqK6oUPwQE1e-151" value="" style="endArrow=classic;html=1;rounded=0;" edge="1" parent="1">
          <mxGeometry width="50" height="50" relative="1" as="geometry">
            <mxPoint x="528.5" y="420" as="sourcePoint" />
            <mxPoint x="528.5" y="460" as="targetPoint" />
          </mxGeometry>
        </mxCell>
        <mxCell id="dMWroVS-dqK6oUPwQE1e-152" value="" style="endArrow=classic;html=1;rounded=0;" edge="1" parent="1">
          <mxGeometry width="50" height="50" relative="1" as="geometry">
            <mxPoint x="528.5" y="560" as="sourcePoint" />
            <mxPoint x="528.5" y="600" as="targetPoint" />
          </mxGeometry>
        </mxCell>
        <mxCell id="dMWroVS-dqK6oUPwQE1e-153" value="" style="endArrow=classic;html=1;rounded=0;" edge="1" parent="1">
          <mxGeometry width="50" height="50" relative="1" as="geometry">
            <mxPoint x="534" y="725" as="sourcePoint" />
            <mxPoint x="534" y="765" as="targetPoint" />
          </mxGeometry>
        </mxCell>
        <mxCell id="dMWroVS-dqK6oUPwQE1e-154" value="&lt;font style=&quot;font-size: 11px;&quot; face=&quot;Verdana&quot;&gt;read from socket&lt;/font&gt;" style="text;html=1;align=center;verticalAlign=middle;whiteSpace=wrap;rounded=0;fillColor=#d5e8d4;strokeColor=#82b366;" vertex="1" parent="1">
          <mxGeometry x="290" y="730" width="60" height="30" as="geometry" />
        </mxCell>
        <mxCell id="dMWroVS-dqK6oUPwQE1e-155" value="&lt;font style=&quot;font-size: 11px;&quot; face=&quot;Verdana&quot;&gt;write to socket&lt;/font&gt;" style="text;html=1;align=center;verticalAlign=middle;whiteSpace=wrap;rounded=0;fillColor=#d5e8d4;strokeColor=#82b366;" vertex="1" parent="1">
          <mxGeometry x="285" y="151" width="60" height="30" as="geometry" />
        </mxCell>
        <mxCell id="dMWroVS-dqK6oUPwQE1e-156" value="&lt;font style=&quot;font-size: 11px;&quot; face=&quot;Verdana&quot;&gt;read from socket&lt;/font&gt;" style="text;html=1;align=center;verticalAlign=middle;whiteSpace=wrap;rounded=0;fillColor=#d5e8d4;strokeColor=#82b366;" vertex="1" parent="1">
          <mxGeometry x="464" y="151" width="60" height="30" as="geometry" />
        </mxCell>
        <mxCell id="dMWroVS-dqK6oUPwQE1e-157" value="&lt;font style=&quot;font-size: 11px;&quot; face=&quot;Verdana&quot;&gt;write to socket&lt;/font&gt;" style="text;html=1;align=center;verticalAlign=middle;whiteSpace=wrap;rounded=0;fillColor=#d5e8d4;strokeColor=#82b366;" vertex="1" parent="1">
          <mxGeometry x="469" y="730" width="60" height="30" as="geometry" />
        </mxCell>
        <mxCell id="dMWroVS-dqK6oUPwQE1e-158" value="" style="shape=note;whiteSpace=wrap;html=1;backgroundOutline=1;darkOpacity=0.05;size=9;" vertex="1" parent="1">
          <mxGeometry x="254.5" y="197.5" width="30" height="42.5" as="geometry" />
        </mxCell>
        <mxCell id="dMWroVS-dqK6oUPwQE1e-159" value="" style="shape=note;whiteSpace=wrap;html=1;backgroundOutline=1;darkOpacity=0.05;size=9;" vertex="1" parent="1">
          <mxGeometry x="264.5" y="207.5" width="30" height="42.5" as="geometry" />
        </mxCell>
        <mxCell id="dMWroVS-dqK6oUPwQE1e-160" value="" style="shape=note;whiteSpace=wrap;html=1;backgroundOutline=1;darkOpacity=0.05;size=9;" vertex="1" parent="1">
          <mxGeometry x="274.5" y="217.5" width="30" height="42.5" as="geometry" />
        </mxCell>
        <mxCell id="dMWroVS-dqK6oUPwQE1e-161" value="&lt;font face=&quot;Verdana&quot;&gt;Bytes Stream&lt;/font&gt;" style="text;html=1;align=center;verticalAlign=middle;whiteSpace=wrap;rounded=0;" vertex="1" parent="1">
          <mxGeometry x="244.5" y="260" width="90" height="30" as="geometry" />
        </mxCell>
        <mxCell id="dMWroVS-dqK6oUPwQE1e-162" value="" style="shape=note;whiteSpace=wrap;html=1;backgroundOutline=1;darkOpacity=0.05;size=9;" vertex="1" parent="1">
          <mxGeometry x="503.5" y="197.5" width="30" height="42.5" as="geometry" />
        </mxCell>
        <mxCell id="dMWroVS-dqK6oUPwQE1e-163" value="" style="shape=note;whiteSpace=wrap;html=1;backgroundOutline=1;darkOpacity=0.05;size=9;" vertex="1" parent="1">
          <mxGeometry x="513.5" y="207.5" width="30" height="42.5" as="geometry" />
        </mxCell>
        <mxCell id="dMWroVS-dqK6oUPwQE1e-164" value="" style="shape=note;whiteSpace=wrap;html=1;backgroundOutline=1;darkOpacity=0.05;size=9;" vertex="1" parent="1">
          <mxGeometry x="523.5" y="217.5" width="30" height="42.5" as="geometry" />
        </mxCell>
        <mxCell id="dMWroVS-dqK6oUPwQE1e-165" value="&lt;font face=&quot;Verdana&quot;&gt;Bytes Stream&lt;/font&gt;" style="text;html=1;align=center;verticalAlign=middle;whiteSpace=wrap;rounded=0;" vertex="1" parent="1">
          <mxGeometry x="493.5" y="260" width="90" height="30" as="geometry" />
        </mxCell>
        <mxCell id="dMWroVS-dqK6oUPwQE1e-166" value="" style="endArrow=classic;html=1;rounded=0;" edge="1" parent="1">
          <mxGeometry width="50" height="50" relative="1" as="geometry">
            <mxPoint x="279.5" y="330" as="sourcePoint" />
            <mxPoint x="279.5" y="290" as="targetPoint" />
          </mxGeometry>
        </mxCell>
        <mxCell id="dMWroVS-dqK6oUPwQE1e-167" value="" style="endArrow=classic;html=1;rounded=0;" edge="1" parent="1">
          <mxGeometry width="50" height="50" relative="1" as="geometry">
            <mxPoint x="528" y="300" as="sourcePoint" />
            <mxPoint x="528" y="340" as="targetPoint" />
          </mxGeometry>
        </mxCell>
      </root>
    </mxGraphModel>
  </diagram>
</mxfile>
